<svg width="150" height="50" viewBox="0 0 150 50" fill="none" xmlns="http://www.w3.org/2000/svg">
<rect width="150" height="50" fill="white"/>
<path d="M26.5869 26.2334C26.5869 28.3623 26.1377 30.2471 25.2393 31.8877C24.3506 33.5186 23.0762 34.7783 21.416 35.667C19.7559 36.5557 17.8418 37 15.6738 37H6.78223V15.9941H15.4834C22.8857 15.9941 26.5869 19.4072 26.5869 26.2334ZM19.8633 26.292C19.8633 25.2666 19.6533 24.3438 19.2334 23.5234C18.8232 22.7031 18.2324 22.0684 17.4609 21.6191C16.6895 21.1699 15.7812 20.9453 14.7363 20.9453H13.1104V32.0488H14.8828C16.3965 32.0488 17.6025 31.5312 18.501 30.4961C19.4092 29.4512 19.8633 28.0498 19.8633 26.292ZM49.5264 26.4385C49.5264 28.5479 49.0723 30.4375 48.1641 32.1074C47.2559 33.7676 45.9863 35.0615 44.3555 35.9893C42.7246 36.9072 40.8984 37.3662 38.877 37.3662C36.9043 37.3662 35.1074 36.9219 33.4863 36.0332C31.875 35.1348 30.6201 33.8799 29.7217 32.2686C28.8232 30.6475 28.374 28.8164 28.374 26.7754C28.374 24.6367 28.8281 22.7129 29.7363 21.0039C30.6445 19.2949 31.9189 17.9766 33.5596 17.0488C35.2002 16.1113 37.0654 15.6426 39.1553 15.6426C41.167 15.6426 42.9639 16.0918 44.5459 16.9902C46.1377 17.8789 47.3633 19.1533 48.2227 20.8135C49.0918 22.4639 49.5264 24.3389 49.5264 26.4385ZM42.8174 26.6143C42.8174 24.8857 42.4854 23.5234 41.8213 22.5273C41.1572 21.5312 40.249 21.0332 39.0967 21.0332C37.8369 21.0332 36.8555 21.5117 36.1523 22.4688C35.4492 23.4258 35.0977 24.7783 35.0977 26.5264C35.0977 28.2354 35.4443 29.5684 36.1377 30.5254C36.8408 31.4824 37.793 31.9609 38.9941 31.9609C39.7266 31.9609 40.3857 31.7461 40.9717 31.3164C41.5576 30.8867 42.0117 30.2715 42.334 29.4707C42.6562 28.6699 42.8174 27.7178 42.8174 26.6143ZM52.5146 37V15.9941H58.8428V32.0488H66.0791V37H52.5146ZM85.9131 22.9229C85.9131 24.3584 85.5469 25.6328 84.8145 26.7461C84.0918 27.8594 83.0566 28.7236 81.709 29.3389C80.3613 29.9443 78.7939 30.2471 77.0068 30.2471H75.0732V37H68.7451V15.9941H77.3584C80.3174 15.9941 82.4805 16.5557 83.8477 17.6787C85.2246 18.8018 85.9131 20.5498 85.9131 22.9229ZM79.2188 23.1426C79.2188 22.2832 78.9697 21.6338 78.4717 21.1943C77.9736 20.7549 77.2412 20.5352 76.2744 20.5352H75.0732V25.7207H76.4941C78.3105 25.7207 79.2188 24.8613 79.2188 23.1426ZM102.026 37V29.1631H94.7607V37H88.4326V15.9941H94.7607V23.7725H102.026V15.9941H108.354V37H102.026ZM112.515 37V15.9941H118.843V37H112.515ZM137.651 37L130.239 26.8633C129.653 26.0625 129.175 25.3398 128.804 24.6953H128.745C128.804 25.7305 128.833 26.8926 128.833 28.1816V37H122.974V15.9941H128.95L136.055 25.6328C136.143 25.7598 136.25 25.9111 136.377 26.0869C136.504 26.2627 136.631 26.4434 136.758 26.6289C136.885 26.8145 137.002 26.9951 137.109 27.1709C137.227 27.3467 137.314 27.5029 137.373 27.6396H137.432C137.373 27.21 137.344 26.4678 137.344 25.4131V15.9941H143.203V37H137.651Z" fill="black"/>
</svg>
